
      <svg data-logo="logo" xmlns="http://www.w3.org/2000/svg" viewBox="0 0 196 43">
        <g id="logogram" transform="translate(0, 1) rotate(0)"><path d="M12.2501 38.5041L8.20328 31.4947L14.1422 21.2365L17.9161 27.7736L40.1946 27.7616L33.8729 38.6009L12.2501 38.5041Z" fill="#FFAD64"/><path d="M44.1727 20.8016L40.1259 27.8108L28.2725 27.7968L32.0468 21.2598L20.8972 1.97211L33.4451 2.02716L44.1727 20.8016Z" fill="#ADD4D3"/><path d="M12.8737 1.93472H20.9674L26.8819 12.2073L19.3334 12.2069L8.2047 31.5066L1.97841 20.6124L12.8737 1.93472Z" fill="#FB8351"/><path fill-rule="evenodd" clip-rule="evenodd" d="M21.9542 0.311858L21.93 0.269989H11.9176L0.0561523 20.604L8.19841 34.8506L8.2084 34.8333L11.2865 40.1647L34.8269 40.27L43.0937 26.0952H43.0387L46.0926 20.8058L34.4136 0.366518L21.9542 0.311858ZM29.6993 13.8721H29.7618L23.8761 3.65005L32.4765 3.68776L42.2528 20.7972L39.1928 26.0974L31.1736 26.1017L33.9696 21.2592L29.6993 13.8721ZM19.9152 3.59966L23.9284 10.5423L18.3719 10.5421L8.85894 27.0394L8.21004 28.1604L3.90107 20.6209L13.8301 3.59966H19.9152ZM16.0567 21.2226L20.2953 13.8719L25.8534 13.8721L30.1241 21.2602L27.3276 26.1038L18.8773 26.1084L16.0567 21.2226ZM10.1296 31.5014L11.7422 28.705L14.1402 24.5628L16.9553 29.4391L25.4043 29.4345L25.3906 29.4581L37.2697 29.4722L32.9192 36.9318L13.2138 36.8436L10.1296 31.5014Z" fill="#333237"/></g>
        <g id="logotype" transform="translate(53, 1)"><path fill="#111111" d="M13.31 41.14L8.19 41.14L8.19 14.89L13.23 14.89L13.23 18.11L13.47 18.11Q13.83 17.35 14.49 16.55Q15.14 15.75 16.22 15.20Q17.30 14.65 18.92 14.65L18.92 14.65Q21.04 14.65 22.80 15.75Q24.56 16.84 25.61 19.03Q26.66 21.22 26.66 24.48L26.66 24.48Q26.66 27.66 25.64 29.86Q24.61 32.05 22.85 33.19Q21.09 34.32 18.89 34.32L18.89 34.32Q17.33 34.32 16.25 33.79Q15.18 33.27 14.50 32.49Q13.83 31.71 13.47 30.94L13.47 30.94L13.31 30.94L13.31 41.14ZM17.31 30.21L17.31 30.21Q18.65 30.21 19.56 29.47Q20.48 28.74 20.95 27.44Q21.42 26.14 21.42 24.46L21.42 24.46Q21.42 22.79 20.95 21.51Q20.48 20.23 19.57 19.49Q18.66 18.76 17.31 18.76L17.31 18.76Q16.00 18.76 15.07 19.47Q14.15 20.17 13.67 21.45Q13.19 22.72 13.19 24.46L13.19 24.46Q13.19 26.19 13.68 27.48Q14.17 28.77 15.09 29.49Q16.01 30.21 17.31 30.21ZM33.10 34L27.98 34L27.98 14.89L32.93 14.89L32.93 18.23L33.14 18.23Q33.67 16.45 34.91 15.54Q36.14 14.64 37.75 14.64L37.75 14.64Q38.14 14.64 38.60 14.68Q39.05 14.72 39.41 14.81L39.41 14.81L39.41 19.39Q39.07 19.27 38.42 19.20Q37.77 19.13 37.19 19.13L37.19 19.13Q36.02 19.13 35.08 19.64Q34.14 20.14 33.62 21.04Q33.10 21.93 33.10 23.13L33.10 23.13L33.10 34ZM48.58 34.38L48.58 34.38Q45.66 34.38 43.54 33.18Q41.42 31.98 40.29 29.78Q39.15 27.57 39.15 24.55L39.15 24.55Q39.15 21.59 40.28 19.37Q41.41 17.15 43.47 15.90Q45.54 14.65 48.33 14.65L48.33 14.65Q50.21 14.65 51.83 15.25Q53.45 15.85 54.68 17.06Q55.92 18.26 56.61 20.07Q57.30 21.88 57.30 24.34L57.30 24.34L57.30 25.78L41.25 25.78L41.25 22.57L54.79 22.57L52.39 23.42Q52.39 21.93 51.94 20.83Q51.49 19.73 50.59 19.12Q49.69 18.52 48.36 18.52L48.36 18.52Q47.05 18.52 46.11 19.13Q45.18 19.75 44.70 20.80Q44.23 21.85 44.23 23.20L44.23 23.20L44.23 25.47Q44.23 27.13 44.78 28.26Q45.34 29.39 46.34 29.95Q47.34 30.51 48.67 30.51L48.67 30.51Q49.58 30.51 50.31 30.26Q51.04 30.00 51.57 29.50Q52.09 28.99 52.36 28.26L52.36 28.26L57.01 29.13Q56.55 30.70 55.40 31.89Q54.26 33.08 52.54 33.73Q50.82 34.38 48.58 34.38ZM63.65 41.14L58.53 41.14L58.53 14.89L63.57 14.89L63.57 18.11L63.81 18.11Q64.17 17.35 64.83 16.55Q65.48 15.75 66.56 15.20Q67.64 14.65 69.26 14.65L69.26 14.65Q71.38 14.65 73.14 15.75Q74.90 16.84 75.95 19.03Q77.00 21.22 77.00 24.48L77.00 24.48Q77.00 27.66 75.98 29.86Q74.95 32.05 73.19 33.19Q71.43 34.32 69.23 34.32L69.23 34.32Q67.67 34.32 66.59 33.79Q65.52 33.27 64.84 32.49Q64.17 31.71 63.81 30.94L63.81 30.94L63.65 30.94L63.65 41.14ZM67.65 30.21L67.65 30.21Q68.99 30.21 69.90 29.47Q70.82 28.74 71.29 27.44Q71.76 26.14 71.76 24.46L71.76 24.46Q71.76 22.79 71.29 21.51Q70.82 20.23 69.91 19.49Q69.00 18.76 67.65 18.76L67.65 18.76Q66.34 18.76 65.42 19.47Q64.49 20.17 64.01 21.45Q63.54 22.72 63.54 24.46L63.54 24.46Q63.54 26.19 64.02 27.48Q64.51 28.77 65.43 29.49Q66.36 30.21 67.65 30.21ZM83.65 34L78.44 34L78.44 8.54L88.36 8.54Q91.27 8.54 93.30 9.64Q95.34 10.74 96.41 12.68Q97.47 14.62 97.47 17.13L97.47 17.13Q97.47 19.66 96.39 21.58Q95.30 23.51 93.24 24.59Q91.18 25.68 88.25 25.68L88.25 25.68L81.85 25.68L81.85 21.47L87.41 21.47Q89.01 21.47 90.05 20.92Q91.08 20.36 91.59 19.39Q92.09 18.41 92.09 17.13L92.09 17.13Q92.09 15.85 91.59 14.88Q91.08 13.90 90.04 13.37Q89.00 12.84 87.39 12.84L87.39 12.84L83.65 12.84L83.65 34ZM103.85 34L98.72 34L98.72 14.89L103.85 14.89L103.85 34ZM101.28 12.40L101.28 12.40Q100.12 12.40 99.30 11.63Q98.48 10.86 98.48 9.77L98.48 9.77Q98.48 8.67 99.30 7.90Q100.12 7.13 101.28 7.13L101.28 7.13Q102.44 7.13 103.27 7.90Q104.10 8.66 104.10 9.77L104.10 9.77Q104.10 10.86 103.27 11.63Q102.44 12.40 101.28 12.40ZM105.93 8.54L111.06 8.54L111.06 34L105.93 34L105.93 8.54ZM121.68 34.38L121.68 34.38Q118.81 34.38 116.71 33.14Q114.61 31.90 113.47 29.68Q112.34 27.47 112.34 24.53L112.34 24.53Q112.34 21.56 113.47 19.35Q114.61 17.13 116.71 15.89Q118.81 14.65 121.68 14.65L121.68 14.65Q124.57 14.65 126.67 15.89Q128.76 17.13 129.90 19.35Q131.03 21.56 131.03 24.53L131.03 24.53Q131.03 27.47 129.90 29.68Q128.76 31.90 126.67 33.14Q124.57 34.38 121.68 34.38ZM121.68 30.34L121.68 30.34Q123.05 30.34 123.97 29.58Q124.90 28.82 125.36 27.50Q125.82 26.17 125.82 24.52L125.82 24.52Q125.82 22.82 125.36 21.51Q124.90 20.19 123.97 19.44Q123.05 18.69 121.68 18.69L121.68 18.69Q120.32 18.69 119.40 19.44Q118.49 20.19 118.03 21.51Q117.57 22.82 117.57 24.52L117.57 24.52Q117.57 26.17 118.03 27.50Q118.49 28.82 119.40 29.58Q120.32 30.34 121.68 30.34ZM130.48 14.89L141.81 14.89L141.81 18.81L130.48 18.81L130.48 14.89ZM133.11 28.86L133.11 10.35L138.24 10.35L138.24 28.41Q138.24 29.32 138.64 29.75Q139.05 30.19 139.99 30.19L139.99 30.19Q140.28 30.19 140.81 30.11Q141.34 30.04 141.61 29.97L141.61 29.97L142.34 33.81Q141.49 34.07 140.64 34.17Q139.80 34.27 139.03 34.27L139.03 34.27Q136.16 34.27 134.64 32.87Q133.11 31.47 133.11 28.86L133.11 28.86Z"/></g>
        
      </svg>
    